<svg xmlns="http://www.w3.org/2000/svg" width="80" height="80" viewBox="0 0 80 80">
    <path fill="#000" fill-rule="nonzero" d="M59.441 42.126c-.09-8.346 7.358-12.347 7.691-12.549-4.185-5.66-10.705-6.436-13.025-6.525-5.546-.52-10.824 3.02-13.638 3.02-2.808 0-7.153-2.944-11.751-2.868-6.049.083-11.623 3.253-14.736 8.262-6.281 10.08-1.608 25.016 4.514 33.197 2.993 3.999 6.561 8.497 11.242 8.333 4.513-.165 6.217-2.699 11.67-2.699 5.455 0 6.986 2.699 11.759 2.615 4.852-.081 7.928-4.075 10.897-8.09 3.437-4.645 4.851-9.143 4.936-9.37-.11-.047-9.463-3.361-9.559-13.326zm-9.11-24.75c2.41-2.75 4.04-6.571 3.596-10.376-3.474.131-7.68 2.172-10.175 4.92-2.234 2.437-4.189 6.32-3.667 10.055 3.877.283 7.833-1.855 10.247-4.6z"/>
</svg>
