<svg xmlns="http://www.w3.org/2000/svg" width="80" height="80" viewBox="0 0 80 80">
    <path fill="#77B938" fill-rule="nonzero" d="M52.768 27.424c.872 0 1.682.063 2.554.187C53.017 16.905 41.556 9 28.537 9 13.96 9 2 18.96 2 31.595c0 7.283 3.987 13.258 10.652 17.926L9.973 57.49l9.282-4.669c3.301.685 5.98 1.308 9.282 1.308.81 0 1.681-.063 2.491-.125-.498-1.805-.81-3.61-.81-5.54-.062-11.64 9.905-21.039 22.55-21.039zm-14.265-7.22c1.994 0 3.302 1.307 3.302 3.3 0 1.99-1.308 3.298-3.302 3.298-1.993 0-3.986-1.307-3.986-3.299 0-1.93 1.993-3.299 3.986-3.299zm-18.625 6.66c-1.993 0-3.987-1.307-3.987-3.299s1.994-3.299 3.987-3.299 3.301 1.307 3.301 3.3c0 1.991-1.308 3.298-3.301 3.298zM77 48.09c0-10.582-10.652-19.234-22.55-19.234-12.645 0-22.612 8.652-22.612 19.234 0 10.644 9.967 19.233 22.612 19.233 2.616 0 5.295-.684 7.974-1.307L69.712 70l-1.994-6.66C73.013 59.418 77 54.128 77 48.09zm-29.9-3.3c-1.308 0-2.679-1.306-2.679-2.676 0-1.307 1.308-2.676 2.679-2.676 1.993 0 3.301 1.307 3.301 2.676.062 1.37-1.308 2.677-3.301 2.677zm14.638 0c-1.308 0-2.616-1.306-2.616-2.676 0-1.307 1.308-2.676 2.616-2.676 1.994 0 3.302 1.307 3.302 2.676 0 1.37-1.308 2.677-3.302 2.677z"/>
</svg>
