<svg xmlns="http://www.w3.org/2000/svg" width="80" height="80" viewBox="0 0 80 80">
    <path fill="#999" fill-rule="nonzero" d="M40 5C20.68 5 5 20.68 5 40s15.68 35 35 35 35-15.68 35-35C75 20.61 59.32 5 40 5zm11.62 37.59c-1.54.28-2.87 0-3.57-1.47-.63-1.4.28-2.38 1.26-3.22.49-.42 1.05-.7 1.61-.98 2.31-1.33 4.27-3.08 3.08-6.02-1.05-2.73-3.57-3.43-6.23-3.08-3.08.42-4.76 2.24-4.76 5.39 0 4.83.14 9.73-.07 14.56-.28 5.46-6.09 10.29-11.69 10.08-6.02-.21-10.85-5.11-10.78-12.32.14-3.36 3.15-6.09 7.28-7.91 1.75-.77 3.43-.77 4.41 1.19 1.12 2.31-.77 3.08-2.31 3.78-3.08 1.33-4.62 3.5-3.15 6.65 1.4 2.94 4.27 3.57 7.28 2.52 2.52-.84 3.5-2.87 3.43-5.53-.07-4.41-.07-8.75 0-13.16.07-5.25 2.52-8.61 7.35-10.36 4.41-1.54 9.87-.14 12.88 3.36 4.48 5.53 1.05 15.05-6.02 16.52z"/>
</svg>
