<svg xmlns="http://www.w3.org/2000/svg" width="148" height="43" viewBox="0 0 148 43">
    <defs>
        <linearGradient id="a" x1="15.844%" x2="97.732%" y1="15.593%" y2="100%">
            <stop offset="0%" stop-color="#0081FF"/>
            <stop offset="100%" stop-color="#09F"/>
        </linearGradient>
    </defs>
    <g fill="none" fill-rule="evenodd">
        <g>
            <rect width="43" height="43" fill="#FFF" rx="10.752"/>
            <path fill="url(#a)" d="M13.438 26.875C6.016 26.875 0 20.86 0 13.438 0 6.016 6.016 0 13.438 0c7.42 0 13.437 6.016 13.437 13.438v12.026c0 .78-.632 1.411-1.412 1.411H13.438z" transform="translate(7.063 7.063)"/>
            <path fill="#FFF" d="M23.944 26.594h-4.793a5.356 5.356 0 1 1 0-10.712 5.356 5.356 0 0 1 5.356 5.356v4.793c0 .311-.252.563-.563.563"/>
            <path fill="#FFF" d="M21.986 26.167v-3.635a4.062 4.062 0 0 1 8.123 0 4.062 4.062 0 0 1-4.061 4.062h-3.636a.426.426 0 0 1-.426-.427M18.697 26.594h-2.869a3.205 3.205 0 1 1 0-6.41 3.205 3.205 0 0 1 3.205 3.205v2.868c0 .187-.15.337-.336.337"/>
        </g>
        <path fill="#FFF" d="M58.267 14.543a.681.681 0 0 0-.696.7v1.463c0 .4.299.7.696.7h16.614c.366 0 .663-.3.663-.7v-1.464c0-.4-.297-.699-.663-.699H58.267zm16.614-2.263c1.658 0 2.953 1.3 2.953 2.962v1.464c0 1.597-1.295 2.96-2.953 2.96H58.267c-1.625 0-2.95-1.363-2.95-2.96v-1.464a2.942 2.942 0 0 1 2.95-2.962h16.614zm-20.659 9.05h24.77v2.263H68.05v1.862h12.237v2.262H68.05v1.664h12.868v2.262H68.05v.166c0 2.295-1.889 4.19-4.177 4.19h-2.687v-2.26h2.687a1.93 1.93 0 0 0 1.924-1.93v-.166H52.298V29.38h13.498v-1.664H52.962v-2.262h12.834v-1.862H54.222V21.33zm22.45-14.338l-1.16 1.73h2.055c1.957 0 3.582 1.63 3.582 3.592v1.664h-2.255v-1.664c0-.731-.597-1.33-1.327-1.33H55.582c-.73 0-1.326.599-1.326 1.33v1.664H52v-1.664c0-1.963 1.625-3.591 3.582-3.591h2.056l-1.161-1.73 1.89-1.231 1.99 2.96h5.073V5.495h2.255v3.229h5.108l1.989-2.961 1.89 1.23zM101.143 12.756v16.557h8.835c1.076 0 1.95-.871 1.95-1.941V14.696c0-1.104-.874-1.94-1.95-1.94h-8.835zm-2.286 16.557V12.756H90.02a1.924 1.924 0 0 0-1.948 1.94v12.676c0 1.07.874 1.94 1.948 1.94h8.837zm0 6.153v-3.88H90.02a4.205 4.205 0 0 1-4.232-4.214V14.696c0-2.307 1.847-4.248 4.232-4.248h8.837V6.603h2.286v3.845h8.835c2.32 0 4.234 1.941 4.234 4.248v12.676c0 2.308-1.914 4.213-4.234 4.213h-8.835v3.88h-2.286zM120.968 9.415h24.567V7.138h-24.567v2.277zm-2.465 7.711H148v2.277h-18.404l-6.187 11.662c-.4.749.413 1.59 1.245 1.59h17.526a1.94 1.94 0 0 0 1.941-1.94l-3.859-6.627h2.275l3.466 5.387c.576 1.82-.044 3.907-1.69 4.876a4.192 4.192 0 0 1-2.133.58h-17.569c-2.18 0-4.323-2.203-3.292-4.16l5.968-11.368h-8.784v-2.277z"/>
    </g>
</svg>
